<svg class="header__top-item_yellow_ico" height="40" width="40" xmlns="http://www.w3.org/2000/svg">
  <g fill="none" fill-rule="evenodd" stroke-linecap="round" stroke-linejoin="round" stroke-width="1.5">
    <g class="header__top-item_yellow_svg" stroke="#000">
      <path
        d="M7.5 20.508v2c0 .582.722.733 1.266 1.009.382.193 1.234.49 1.234.49M33 24.008s.775-.117 1.433-.395c.563-.239.817-.518.817-1.1 0-.69-.191-1.888-.5-2.506-.375-.75-2.746-1.807-5.625-2.844-.781-.28-1.969-1.5-4.156-3.062-.723-.516-1.821-.983-2.969-1.177-1.347-.227-2.912-.166-5.5-.166H8.75M15.916 24.5h11M15.246 22.376c.337.456.504 1.02.504 1.632a2.75 2.75 0 1 1-5.5 0c0-.631.239-1.163.596-1.627">
      </path>
      <path d="M32.75 24.008a2.75 2.75 0 1 1-2.75-2.75c1.52 0 2.75 1.23 2.75 2.75zM6.75 16.508h9.5M4.75 20.258h9.5">
      </path>
    </g>
  </g>
</svg>